<?xml version="1.0" encoding="utf-8"?>
<!-- Generator: Adobe Illustrator 18.0.0, SVG Export Plug-In . SVG Version: 6.00 Build 0)  -->
<!DOCTYPE svg PUBLIC "-//W3C//DTD SVG 1.1//EN" "http://www.w3.org/Graphics/SVG/1.1/DTD/svg11.dtd">
<svg version="1.1" id="Ebene_1" xmlns="http://www.w3.org/2000/svg" xmlns:xlink="http://www.w3.org/1999/xlink" x="0px" y="0px"
	 viewBox="0 0 100 100" enable-background="new 0 0 100 100" xml:space="preserve">
<g id="interface_-_bell_notification_1_" opacity="0.75">
	<g>
		<path fill-rule="evenodd" clip-rule="evenodd" fill="#FFFFFF" d="M68.3,1.1c-16.9-4.5-34.2,5.4-38.8,22c0,0-0.6,2.4-1.6,6l0,0
			l-0.6,2.3c-1,3.7-2.3,8.3-3.5,12.9l-0.7,2.5C20.5,56.4,4.2,68,4.2,68l36,9.5c-1,2.1-1.6,4.4-1.6,6.8c0,8.6,7,15.6,15.6,15.6
			c8.3,0,15.1-6.5,15.6-14.7l20,5.3c0,0-8.2-18-5.6-27.5c0.4-1.3,0.7-2.6,1.1-3.9l0.5-1.9l0,0c2.6-9.4,4.9-18.1,4.9-18.1
			C95.2,22.6,85.2,5.5,68.3,1.1z M35.7,24.7c3.6-13.3,17.5-21.2,31-17.6c13.5,3.6,21.5,17.2,17.9,30.5c0,0-0.7,2.4-1.6,6L34,30.7
			C35,27.1,35.7,24.7,35.7,24.7z M54.3,93.7c-5.2,0-9.4-4.2-9.4-9.4c0-1.9,0.6-3.7,1.6-5.2l17.1,4.5c0,0.2,0.1,0.5,0.1,0.7
			C63.6,89.6,59.4,93.7,54.3,93.7z M18.1,65.2c0,0,8.3-7,11-16.4L78,61.7c-2.5,9.5,1.2,19.7,1.2,19.7L18.1,65.2z M30.7,42.8
			c0.6-2.1,1.1-4.1,1.6-6l48.9,12.9c-0.5,1.9-1.1,3.9-1.6,6L30.7,42.8z"/>
	</g>
</g>
</svg>
