<?xml version="1.0" encoding="utf-8"?>
<!-- Generator: Adobe Illustrator 18.0.0, SVG Export Plug-In . SVG Version: 6.00 Build 0)  -->
<!DOCTYPE svg PUBLIC "-//W3C//DTD SVG 1.1//EN" "http://www.w3.org/Graphics/SVG/1.1/DTD/svg11.dtd">
<svg version="1.1" id="Ebene_1" xmlns="http://www.w3.org/2000/svg" xmlns:xlink="http://www.w3.org/1999/xlink" x="0px" y="0px"
	 viewBox="0 0 100 100" enable-background="new 0 0 100 100" xml:space="preserve">
<g id="interface_-_tick_done_3_" opacity="0.75">
	<g>
		<path fill-rule="evenodd" clip-rule="evenodd" fill="#FFFFFF" d="M50,0C22.4,0,0,22.4,0,50c0,27.6,22.4,50,50,50
			c27.6,0,50-22.4,50-50C100,22.4,77.6,0,50,0z M50,93.7C25.8,93.7,6.2,74.2,6.2,50S25.8,6.2,50,6.2S93.8,25.8,93.8,50
			S74.2,93.7,50,93.7z M71.4,32.1L42.2,61.3L28.6,47.8c-1.2-1.2-3.1-1.2-4.3,0c-1.2,1.2-1.2,3.1,0,4.3l15.3,15.3
			c0.1,0.1,0.2,0.3,0.3,0.4c0.6,0.6,1.4,0.9,2.2,0.9c0.8,0,1.6-0.3,2.2-0.9c0.1-0.1,0.2-0.3,0.3-0.4l31-31c1.2-1.2,1.2-3.1,0-4.3
			C74.5,30.9,72.5,30.9,71.4,32.1z"/>
	</g>
</g>
</svg>
