<?xml version="1.0" encoding="utf-8"?>
<!-- Generator: Adobe Illustrator 18.0.0, SVG Export Plug-In . SVG Version: 6.00 Build 0)  -->
<!DOCTYPE svg PUBLIC "-//W3C//DTD SVG 1.1//EN" "http://www.w3.org/Graphics/SVG/1.1/DTD/svg11.dtd">
<svg version="1.1" xmlns="http://www.w3.org/2000/svg" xmlns:xlink="http://www.w3.org/1999/xlink" x="0px" y="0px"
	 viewBox="0 0 666 666" enable-background="new 0 0 666 666" xml:space="preserve">
<g id="BG" display="none">
	<g display="inline">
		<defs>
			<circle id="SVGID_1_" cx="333" cy="333" r="333"/>
		</defs>
		<clipPath id="SVGID_2_">
			<use xlink:href="#SVGID_1_"  overflow="visible"/>
		</clipPath>
		<g clip-path="url(#SVGID_2_)">
			
				<image overflow="visible" width="2560" height="1600" xlink:href="../../../../../../Downloads/Beach-Dark-Sunset-Landscape.jpg"  transform="matrix(0.4192 0 0 0.4192 -184.411 -3)">
			</image>
		</g>
	</g>
	<circle display="inline" fill="#065882" cx="333" cy="333" r="333"/>
</g>
<g id="UI_-Menu" display="none">
	<g>
	</g>
	<g id="interface_-_bell_notification_1_" display="inline" opacity="0.75">
		<g>
			<path fill-rule="evenodd" clip-rule="evenodd" fill="#FFFFFF" d="M104.3,284.1c-16.9-4.5-34.2,5.4-38.8,22c0,0-0.6,2.4-1.6,6l0,0
				l-0.6,2.3c-1,3.7-2.3,8.3-3.5,12.9l-0.7,2.5c-2.6,9.6-18.9,21.2-18.9,21.2l36,9.5c-1,2.1-1.6,4.4-1.6,6.8c0,8.6,7,15.6,15.6,15.6
				c8.3,0,15.1-6.5,15.6-14.7l20,5.3c0,0-8.2-18-5.6-27.5c0.4-1.3,0.7-2.6,1.1-3.9l0.5-1.9l0,0c2.6-9.4,4.9-18.1,4.9-18.1
				C131.2,305.6,121.2,288.5,104.3,284.1z M71.7,307.7c3.6-13.3,17.5-21.2,31-17.6c13.5,3.6,21.5,17.2,17.9,30.5c0,0-0.7,2.4-1.6,6
				L70,313.7C71,310.1,71.7,307.7,71.7,307.7z M90.3,376.8c-5.2,0-9.4-4.2-9.4-9.4c0-1.9,0.6-3.7,1.6-5.2l17.1,4.5
				c0,0.2,0.1,0.5,0.1,0.7C99.6,372.6,95.4,376.8,90.3,376.8z M54.1,348.2c0,0,8.3-7,11-16.4l48.9,12.9c-2.5,9.5,1.2,19.7,1.2,19.7
				L54.1,348.2z M66.7,325.8c0.6-2.1,1.1-4.1,1.6-6l48.9,12.9c-0.5,1.9-1.1,3.9-1.6,6L66.7,325.8z"/>
		</g>
	</g>
	<g id="interface_-_tick_done_3_" display="inline" opacity="0.75">
		<g>
			<path fill-rule="evenodd" clip-rule="evenodd" fill="#FFFFFF" d="M333,526c-27.6,0-50,22.4-50,50c0,27.6,22.4,50,50,50
				c27.6,0,50-22.4,50-50C383,548.4,360.6,526,333,526z M333,619.7c-24.2,0-43.8-19.6-43.8-43.8s19.6-43.8,43.8-43.8
				s43.8,19.6,43.8,43.8S357.2,619.7,333,619.7z M354.4,558.1l-29.2,29.2l-13.5-13.5c-1.2-1.2-3.1-1.2-4.3,0c-1.2,1.2-1.2,3.1,0,4.3
				l15.3,15.3c0.1,0.1,0.2,0.3,0.3,0.4c0.6,0.6,1.4,0.9,2.2,0.9c0.8,0,1.6-0.3,2.2-0.9c0.1-0.1,0.2-0.3,0.3-0.4l31-31
				c1.2-1.2,1.2-3.1,0-4.3C357.5,556.9,355.5,556.9,354.4,558.1z"/>
		</g>
	</g>
	<g id="setting_-_gear" display="inline" opacity="0.75">
		<g>
			<path fill-rule="evenodd" clip-rule="evenodd" fill="#FFFFFF" d="M619.8,323.6l-7.8-1.3c-0.7-2.5-1.7-4.9-3-7.2l4.6-6.4
				c2.4-2.4,2.4-6.4,0-8.8l-4.4-4.4c-2.4-2.4-6.4-2.4-8.8,0l-6.4,4.6c-2.3-1.2-4.7-2.2-7.2-3l-1.3-7.8c0-3.5-2.8-6.3-6.3-6.3h-6.3
				c-3.5,0-6.3,2.8-6.3,6.3l-1.3,7.8c-2.5,0.7-4.9,1.7-7.2,3l-6.4-4.6c-2.4-2.4-6.4-2.4-8.8,0l-4.4,4.4c-2.4,2.4-2.4,6.4,0,8.8
				l4.6,6.4c-1.2,2.3-2.2,4.7-3,7.2l-7.8,1.3c-3.5,0-6.3,2.8-6.3,6.3v6.2c0,3.5,2.8,6.3,6.3,6.3l7.8,1.3c0.7,2.5,1.7,4.9,3,7.2
				l-4.6,6.4c-2.4,2.4-2.4,6.4,0,8.8l4.4,4.4c2.4,2.4,6.4,2.4,8.8,0l6.4-4.6c2.3,1.2,4.7,2.2,7.2,3l1.3,7.8c0,3.4,2.8,6.2,6.3,6.2
				h6.3c3.5,0,6.3-2.8,6.3-6.2l1.3-7.8c2.5-0.7,4.9-1.7,7.2-3l6.4,4.6c2.4,2.4,6.4,2.4,8.8,0l4.4-4.4c2.4-2.4,2.4-6.4,0-8.8
				l-4.6-6.4c1.2-2.3,2.2-4.7,3-7.2l7.8-1.3c3.5,0,6.3-2.8,6.3-6.3v-6.2C626,326.4,623.2,323.6,619.8,323.6z M616.6,336.1l-9.7,1.6
				c-0.8,5.1-2.8,9.8-5.7,13.7l5.7,8c1.2,1.2,1.2,3.2,0,4.4c-1.2,1.2-3.2,1.2-4.4,0l-8-5.7c-4,2.9-8.6,4.9-13.7,5.7l-1.6,9.7
				c0,1.7-1.4,3.1-3.1,3.1s-3.1-1.4-3.1-3.1l-1.6-9.7c-5.1-0.8-9.8-2.8-13.7-5.7l-8,5.7c-1.2,1.2-3.2,1.2-4.4,0
				c-1.2-1.2-1.2-3.2,0-4.4l5.7-8c-2.9-4-4.9-8.6-5.7-13.7l-9.7-1.6c-1.7,0-3.1-1.4-3.1-3.1c0-1.7,1.4-3.1,3.1-3.1l9.7-1.6
				c0.8-5.1,2.8-9.8,5.7-13.7l-5.7-8c-1.2-1.2-1.2-3.2,0-4.4c1.2-1.2,3.2-1.2,4.4,0l8,5.7c4-2.9,8.6-4.9,13.7-5.7l1.6-9.7
				c0-1.7,1.4-3.1,3.1-3.1s3.1,1.4,3.1,3.1l1.6,9.7c5.1,0.8,9.8,2.8,13.7,5.7l8-5.7c1.2-1.2,3.2-1.2,4.4,0c1.2,1.2,1.2,3.2,0,4.4
				l-5.7,8c2.9,4,4.9,8.6,5.7,13.7l9.7,1.6c1.7,0,3.1,1.4,3.1,3.1C619.8,334.7,618.4,336.1,616.6,336.1z M576,317.4
				c-8.6,0-15.6,7-15.6,15.6c0,8.6,7,15.6,15.6,15.6c8.6,0,15.6-7,15.6-15.6C591.6,324.4,584.6,317.4,576,317.4z M576,342.4
				c-5.2,0-9.4-4.2-9.4-9.4c0-5.2,4.2-9.4,9.4-9.4s9.4,4.2,9.4,9.4C585.4,338.2,581.2,342.4,576,342.4z"/>
		</g>
	</g>
	<g id="interface_-_arrow_top_4_" display="inline" opacity="0.75">
		<g>
			<path fill-rule="evenodd" clip-rule="evenodd" fill="#FFFFFF" d="M335.6,75.7c-0.1-0.1-0.2-0.3-0.3-0.4c-0.6-0.6-1.4-0.9-2.2-0.9
				c-0.8,0-1.6,0.3-2.2,0.9c-0.1,0.1-0.2,0.3-0.3,0.4l-24.8,24.6c-1.2,1.2-1.2,3.2,0,4.4c1.2,1.2,3.2,1.2,4.4,0L333,81.9l22.8,22.9
				c1.2,1.2,3.2,1.2,4.4,0c1.2-1.2,1.2-3.2,0-4.4L335.6,75.7z M333.2,40c-27.6-0.1-50.1,22.2-50.2,49.8
				c-0.1,27.6,22.2,50.1,49.8,50.2c27.6,0.1,50.1-22.2,50.2-49.8C383.1,62.5,360.8,40.1,333.2,40z M332.9,133.7
				c-24.2-0.1-43.7-19.7-43.6-43.9c0.1-24.2,19.7-43.7,43.9-43.6c24.2,0.1,43.7,19.7,43.6,43.9C376.7,114.3,357,133.8,332.9,133.7z"
				/>
		</g>
	</g>
</g>
<g id="Zeiger">
	<path id="Minutes" display="none" fill="#FFF766" d="M99.4,570.4l29.4-27.2c0,0-8-8.4-15.6-16.4l-29.9,26.6
		C91,562.4,95.8,566.8,99.4,570.4z"/>
	<path id="Hours_1_" display="none" fill="#FFF766" d="M139.3,62.1c-4,2.9-8,5.8-11.9,8.9l23.2,32.6c10.9-8.5,21-15.6,30.3-21.2
		l-23.2-32.6c-5.6,3.5-11.1,7.1-16.5,10.9L139.3,62.1z"/>
	<g id="Seconds" display="none">
		<g display="inline">
			<line fill="none" stroke="#FFF766" stroke-width="4" stroke-miterlimit="10" x1="584.5" y1="182.4" x2="618.7" y2="161.9"/>
		</g>
		<linearGradient id="SVGID_3_" gradientUnits="userSpaceOnUse" x1="619.118" y1="91.8064" x2="157.8619" y2="91.8064">
			<stop  offset="0" style="stop-color:#5DC3F7"/>
			<stop  offset="1" style="stop-color:#000000;stop-opacity:0"/>
		</linearGradient>
		<path display="inline" opacity="0.6" fill="url(#SVGID_3_)" d="M333,0c-66.2,0-123.3,16.4-175.1,49.7l24.6,32.5
			C228.2,52.6,275.4,40,334,40c107.3,0,201,57.6,252.1,143.6l33-21C561,65.2,454.6,0,333,0z"/>
	</g>
	<g id="DOTS" opacity="0.6">
		<circle fill="#0B9AE3" cx="111" cy="110" r="5"/>
		<circle fill="#0B9AE3" cx="555" cy="554" r="5"/>
		<g id="BIG">
			<circle fill="#0B9AE3" cx="333" cy="18" r="7"/>
			<circle fill="#0B9AE3" cx="333" cy="646" r="7"/>
			<circle fill="#0B9AE3" cx="19" cy="332" r="7"/>
			<circle fill="#0B9AE3" cx="647" cy="332" r="7"/>
		</g>
		<circle fill="#0B9AE3" cx="111" cy="554" r="5"/>
		<circle fill="#0B9AE3" cx="555" cy="110" r="5"/>
	</g>
</g>
<g id="Ebene_6">
</g>
<g id="UI_-_Home" display="none">
	<g id="interface_-_clock_time_1_" opacity="0.75">
		<g display="inline">
			<path fill-rule="evenodd" clip-rule="evenodd" fill="#FFFFFF" d="M311.8,64.1c-1.3-1.3-3.4-1.3-4.7,0c-1.3,1.3-1.3,3.4,0,4.7
				l4.7,4.7c1.3,1.3,3.4,1.3,4.7,0c1.3-1.3,1.3-3.4,0-4.7L311.8,64.1z M309.7,90c0-1.8-1.5-3.3-3.3-3.3h-6.7c-1.8,0-3.3,1.5-3.3,3.3
				c0,1.8,1.5,3.3,3.3,3.3h6.7C308.2,93.3,309.7,91.8,309.7,90z M333,113.3c-1.8,0-3.3,1.5-3.3,3.3v6.7c0,1.8,1.5,3.3,3.3,3.3
				c1.8,0,3.3-1.5,3.3-3.3v-6.7C336.3,114.8,334.8,113.3,333,113.3z M311.8,106.5l-4.7,4.7c-1.3,1.3-1.3,3.4,0,4.7
				c1.3,1.3,3.4,1.3,4.7,0l4.7-4.7c1.3-1.3,1.3-3.4,0-4.7C315.2,105.2,313.1,105.2,311.8,106.5z M333,53.3c-1.8,0-3.3,1.5-3.3,3.3
				v6.7c0,1.8,1.5,3.3,3.3,3.3c1.8,0,3.3-1.5,3.3-3.3v-6.7C336.3,54.8,334.8,53.3,333,53.3z M354.2,106.5c-1.3-1.3-3.4-1.3-4.7,0
				c-1.3,1.3-1.3,3.4,0,4.7l4.7,4.7c1.3,1.3,3.4,1.3,4.7,0c1.3-1.3,1.3-3.4,0-4.7L354.2,106.5z M333,40c-27.6,0-50,22.4-50,50
				c0,27.6,22.4,50,50,50c27.6,0,50-22.4,50-50C383,62.4,360.6,40,333,40z M333,133.3c-23.9,0-43.3-19.4-43.3-43.3
				c0-23.9,19.4-43.3,43.3-43.3s43.3,19.4,43.3,43.3C376.3,113.9,356.9,133.3,333,133.3z M366.3,86.7h-6.7c-1.8,0-3.3,1.5-3.3,3.3
				c0,1.8,1.5,3.3,3.3,3.3h6.7c1.8,0,3.3-1.5,3.3-3.3C369.7,88.2,368.2,86.7,366.3,86.7z M354.2,73.5l4.7-4.7c1.3-1.3,1.3-3.4,0-4.7
				c-1.3-1.3-3.4-1.3-4.7,0l-4.7,4.7c-1.3,1.3-1.3,3.4,0,4.7C350.8,74.8,352.9,74.8,354.2,73.5z"/>
		</g>
	</g>
	<g display="inline">
		<path fill="#FFFFFF" d="M237.2,378.8v10.1h-59.6c-0.2-4.6-0.4-6.9-0.4-9.2c0-2.7,0.2-5.5,0.4-8c5-44.1,50.6-62,50.6-103.5
			c0-22.1-10.9-26.9-21.8-26.9c-20.8,0-22.7,20.2-19.3,42.8l-10.3,0.8c-5.5-28.1,2.5-52.7,30.2-52.7c21.2,0,31.9,12.2,31.9,35.5
			c0,48.7-52.1,66.4-51,111.1H237.2z"/>
		<path fill="#FFFFFF" d="M251.3,254.6c10.1-4.4,21.6-11.3,31.9-20.2h5.2v154.4h-10.3V250c-4.2,3.1-14.9,9-24.4,12.8L251.3,254.6z"
			/>
		<path fill="#FFFFFF" d="M325.9,280.5h11.6v21h-11.6V280.5z M325.9,367.8h11.6v21h-11.6V367.8z"/>
		<path fill="#FFFFFF" d="M357.4,254.6c10.1-4.4,21.6-11.3,31.9-20.2h5.2v154.4h-10.3V250c-4.2,3.1-14.9,9-24.4,12.8L357.4,254.6z"
			/>
		<path fill="#FFFFFF" d="M445.8,303.6c19.3-0.4,33-7.1,33-31.7c0-22.7-9.9-30-22.1-30c-19.5,0-23.9,14.9-21.6,41l-10.3,0.4
			c-3.8-27.5,4.2-51,32.8-51c18.7,0,32.1,12.8,32.1,37.8c0,25.6-12.4,34-25.8,37.6c17.4,2.3,28.1,15.8,28.1,40.7
			c0,28.6-13.4,43.1-35.7,43.1c-27.3,0-33.8-23.3-34.2-47.7l10.5-0.8c0.8,25.2,6.7,38.9,24.2,38.9c13.4,0,24.4-6.9,24.4-34.4
			c0-32.3-17.6-35.1-34.7-34.4L445.8,303.6z"/>
	</g>
	<g display="inline">
		<path fill="#FFFFFF" d="M226.5,455.8l-7.5-32.4h-0.1v32.4h-2.3v-35.2h4.1l7.3,32h0.1l7.3-32h4v35.2h-2.2v-32.4H237l-7.6,32.4
			H226.5z"/>
		<path fill="#FFFFFF" d="M245.7,420.6h2.2v4.4h-2.2V420.6z M245.7,431.1h2.2v24.7h-2.2V431.1z"/>
		<path fill="#FFFFFF" d="M253.7,451h3v4.4l-2.1,6.2l-1.1-0.3l1.3-5.5h-1.2V451z"/>
		<path fill="#FFFFFF" d="M273.3,436.3c4.4-0.1,7.5-1.6,7.5-7.2c0-5.2-2.3-6.9-5-6.9c-4.5,0-5.5,3.4-4.9,9.4l-2.4,0.1
			c-0.9-6.3,1-11.7,7.5-11.7c4.3,0,7.3,2.9,7.3,8.6c0,5.9-2.8,7.8-5.9,8.6c4,0.5,6.4,3.6,6.4,9.3c0,6.5-3.1,9.8-8.2,9.8
			c-6.2,0-7.7-5.3-7.8-10.9l2.4-0.2c0.2,5.8,1.5,8.9,5.5,8.9c3.1,0,5.6-1.6,5.6-7.9c0-7.4-4-8-7.9-7.9L273.3,436.3z"/>
		<path fill="#FFFFFF" d="M286.6,425.2c2.3-1,4.9-2.6,7.3-4.6h1.2v35.3h-2.4v-31.7c-1,0.7-3.4,2.1-5.6,2.9L286.6,425.2z"/>
		<path fill="#FFFFFF" d="M302.7,451h2.6v4.8h-2.6V451z"/>
		<path fill="#FFFFFF" d="M319.1,447.8c0.2,2.9,0.8,6.4,5.1,6.4c2.5,0,4.7-1.2,4.7-6v-27.7h2.4v27.2c0,5.9-2.4,8.6-7.3,8.6
			c-4.3,0-7-2.3-7.2-8.4L319.1,447.8z"/>
		<path fill="#FFFFFF" d="M337,431.1h2.2V448c0,3.8,0.7,6.4,4.3,6.4c4.8,0,5.8-4.9,5.8-8.1v-15.2h2.3v24.7h-1.9l-0.2-3.5h-0.1
			c-0.5,1.5-2.2,4.1-6,4.1c-4.5,0-6.3-2.6-6.3-7.7V431.1z"/>
		<path fill="#FFFFFF" d="M359.7,455.8h-2.3v-35.2h2.3V455.8z"/>
		<path fill="#FFFFFF" d="M365.8,420.6h2.2v4.4h-2.2V420.6z M365.8,431.1h2.2v24.7h-2.2V431.1z"/>
		<path fill="#FFFFFF" d="M394.7,453.5v2.3H381c0-1.1-0.1-1.6-0.1-2.1c0-0.6,0-1.2,0.1-1.8c1.2-10.1,11.6-14.2,11.6-23.7
			c0-5-2.5-6.1-5-6.1c-4.8,0-5.2,4.6-4.4,9.8l-2.4,0.2c-1.2-6.4,0.6-12,6.9-12c4.8,0,7.3,2.8,7.3,8.1c0,11.1-11.9,15.2-11.7,25.4
			H394.7z"/>
		<path fill="#FFFFFF" d="M399.2,438.3c0-12.1,2.5-18.2,9.3-18.2c6.6,0,8.4,6,8.4,17.6c0,12.5-1.8,18.8-9,18.8
			C400.9,456.4,399.2,450.4,399.2,438.3z M414.4,437.9c0-9.8-0.8-15.7-6-15.7c-5.4,0-6.8,6.7-6.8,15.9c0,9.9,0.9,16,6.4,16
			C413.6,454.1,414.4,448,414.4,437.9z"/>
		<path fill="#FFFFFF" d="M420.6,425.2c2.3-1,4.9-2.6,7.3-4.6h1.2v35.3h-2.4v-31.7c-1,0.7-3.4,2.1-5.6,2.9L420.6,425.2z"/>
		<path fill="#FFFFFF" d="M448.2,444.8h3.9v2.3h-3.9v8.7h-2.3v-8.7h-11.5V445l10.9-24.5h2.9V444.8z M445.9,444.8v-20.5h-0.1l-9,20.5
			H445.9z"/>
	</g>
</g>
<g id="Guides">
	<g>
	</g>
	<g>
	</g>
	<g>
	</g>
	<g>
	</g>
	<g>
	</g>
	<g>
	</g>
	<g>
	</g>
	<g>
	</g>
	<g>
	</g>
	<g>
	</g>
	<g>
	</g>
	<g>
	</g>
	<g>
	</g>
	<g>
	</g>
	<g>
	</g>
</g>
</svg>
