<?xml version="1.0" encoding="utf-8"?>
<!-- Generator: Adobe Illustrator 18.0.0, SVG Export Plug-In . SVG Version: 6.00 Build 0)  -->
<!DOCTYPE svg PUBLIC "-//W3C//DTD SVG 1.1//EN" "http://www.w3.org/Graphics/SVG/1.1/DTD/svg11.dtd">
<svg version="1.1" id="Ebene_1" xmlns="http://www.w3.org/2000/svg" xmlns:xlink="http://www.w3.org/1999/xlink" x="0px" y="0px"
	 viewBox="0 0 100 100" enable-background="new 0 0 100 100" xml:space="preserve">
<path fill="#FFFFFF" d="M50,73.3c-1.8,0-3.3,1.5-3.3,3.3v6.7c0,1.8,1.5,3.3,3.3,3.3s3.3-1.5,3.3-3.3v-6.7
	C53.3,74.8,51.8,73.3,50,73.3z"/>
<path fill="#FFFFFF" d="M26.7,50c0-1.8-1.5-3.3-3.3-3.3h-6.7c-1.8,0-3.3,1.5-3.3,3.3s1.5,3.3,3.3,3.3h6.7
	C25.2,53.3,26.7,51.8,26.7,50z"/>
<path fill="#FFFFFF" d="M83.3,46.7h-6.7c-1.8,0-3.3,1.5-3.3,3.3s1.5,3.3,3.3,3.3h6.7c1.8,0,3.3-1.5,3.3-3.3
	C86.7,48.2,85.2,46.7,83.3,46.7z"/>
<path fill="#FFFFFF" d="M50,13.3c-1.8,0-3.3,1.5-3.3,3.3v6.7c0,1.8,1.5,3.3,3.3,3.3s3.3-1.5,3.3-3.3v-6.7
	C53.3,14.8,51.8,13.3,50,13.3z"/>
</svg>
