<?xml version="1.0" encoding="utf-8"?>
<!-- Generator: Adobe Illustrator 18.0.0, SVG Export Plug-In . SVG Version: 6.00 Build 0)  -->
<!DOCTYPE svg PUBLIC "-//W3C//DTD SVG 1.1//EN" "http://www.w3.org/Graphics/SVG/1.1/DTD/svg11.dtd">
<svg version="1.1" id="Ebene_1" xmlns="http://www.w3.org/2000/svg" xmlns:xlink="http://www.w3.org/1999/xlink" x="0px" y="0px"
	 viewBox="0 0 100 100" enable-background="new 0 0 100 100" xml:space="preserve">
<g id="setting_-_gear" opacity="0.75">
	<g>
		<path fill-rule="evenodd" clip-rule="evenodd" fill="#FFFFFF" d="M50,34.4c-8.6,0-15.6,7-15.6,15.6c0,8.6,7,15.6,15.6,15.6
			c8.6,0,15.6-7,15.6-15.6C65.6,41.4,58.6,34.4,50,34.4z M50,59.4c-5.2,0-9.4-4.2-9.4-9.4c0-5.2,4.2-9.4,9.4-9.4s9.4,4.2,9.4,9.4
			C59.4,55.2,55.2,59.4,50,59.4z M93.8,40.6l-7.8-1.3c-0.7-2.5-1.7-4.9-3-7.2l4.6-6.4c2.4-2.4,2.4-6.4,0-8.8l-4.4-4.4
			c-2.4-2.4-6.4-2.4-8.8,0L67.9,17c-2.3-1.2-4.7-2.2-7.2-3l-1.3-7.8c0-3.5-2.8-6.3-6.3-6.3h-6.3c-3.5,0-6.3,2.8-6.3,6.3L39.3,14
			c-2.5,0.7-4.9,1.7-7.2,3l-6.4-4.6c-2.4-2.4-6.4-2.4-8.8,0l-4.4,4.4c-2.4,2.4-2.4,6.4,0,8.8l4.6,6.4c-1.2,2.3-2.2,4.7-3,7.2
			l-7.8,1.3c-3.5,0-6.3,2.8-6.3,6.3v6.2c0,3.5,2.8,6.3,6.3,6.3l7.8,1.3c0.7,2.5,1.7,4.9,3,7.2l-4.6,6.4c-2.4,2.4-2.4,6.4,0,8.8
			l4.4,4.4c2.4,2.4,6.4,2.4,8.8,0l6.4-4.6c2.3,1.2,4.7,2.2,7.2,3l1.3,7.8c0,3.4,2.8,6.2,6.3,6.2h6.3c3.5,0,6.3-2.8,6.3-6.2l1.3-7.8
			c2.5-0.7,4.9-1.7,7.2-3l6.4,4.6c2.4,2.4,6.4,2.4,8.8,0l4.4-4.4c2.4-2.4,2.4-6.4,0-8.8L83,67.9c1.2-2.3,2.2-4.7,3-7.2l7.8-1.3
			c3.5,0,6.3-2.8,6.3-6.3v-6.2C100,43.4,97.2,40.6,93.8,40.6z M90.6,53.1l-9.7,1.6c-0.8,5.1-2.8,9.8-5.7,13.7l5.7,8
			c1.2,1.2,1.2,3.2,0,4.4c-1.2,1.2-3.2,1.2-4.4,0l-8-5.7c-4,2.9-8.6,4.9-13.7,5.7l-1.6,9.7c0,1.7-1.4,3.1-3.1,3.1s-3.1-1.4-3.1-3.1
			l-1.6-9.7c-5.1-0.8-9.8-2.8-13.7-5.7l-8,5.7c-1.2,1.2-3.2,1.2-4.4,0c-1.2-1.2-1.2-3.2,0-4.4l5.7-8c-2.9-4-4.9-8.6-5.7-13.7
			l-9.7-1.6c-1.7,0-3.1-1.4-3.1-3.1c0-1.7,1.4-3.1,3.1-3.1l9.7-1.6c0.8-5.1,2.8-9.8,5.7-13.7l-5.7-8c-1.2-1.2-1.2-3.2,0-4.4
			c1.2-1.2,3.2-1.2,4.4,0l8,5.7c4-2.9,8.6-4.9,13.7-5.7l1.6-9.7c0-1.7,1.4-3.1,3.1-3.1s3.1,1.4,3.1,3.1l1.6,9.7
			c5.1,0.8,9.8,2.8,13.7,5.7l8-5.7c1.2-1.2,3.2-1.2,4.4,0c1.2,1.2,1.2,3.2,0,4.4l-5.7,8c2.9,4,4.9,8.6,5.7,13.7l9.7,1.6
			c1.7,0,3.1,1.4,3.1,3.1C93.8,51.7,92.4,53.1,90.6,53.1z"/>
	</g>
</g>
</svg>
